<?xml-stylesheet href="/styles/main.css" type="text/css"?><svg xmlns="http://www.w3.org/2000/svg" width="31.68" height="31.681" viewBox="0 0 31.68 31.681"><path d="M29.208 3.52c-.203-.286-.45-.526-.73-.74-.61-.474-1.296-.813-2.01-1.1-1.515-.612-3.096-.972-4.7-1.23C19.81.137 17.836.012 15.762 0c-1.854.016-3.797.133-5.725.434-1.37.215-2.72.506-4.035.95-.87.298-1.71.65-2.477 1.165-.365.243-.7.52-.976.868-.345.438-.492.926-.403 1.48.173 1.09.333 2.184.513 3.27.264 1.612.537 3.223.81 4.83.307 1.786.62 3.572.92 5.36.07.415.245.768.525 1.07.18.192.37.376.574.542.73.59 1.56 1.01 2.43 1.354 2.083.83 4.26 1.205 6.486 1.328 1.616.09 3.23.033 4.838-.187 1.37-.185 2.71-.48 4.01-.948.966-.35 1.892-.775 2.726-1.382.355-.26.683-.547.945-.9.18-.24.305-.505.354-.806.396-2.342.808-4.68 1.195-7.022.362-2.172.7-4.346 1.058-6.518.084-.502-.03-.955-.325-1.37zM15.82 19.64c-2.4-.008-4.34-1.97-4.333-4.383.006-2.41 1.958-4.347 4.37-4.338 2.424.007 4.358 1.96 4.35 4.386-.012 2.398-1.98 4.342-4.387 4.334zm8.702-15.246c-.124.14-.274.262-.436.357-.45.27-.95.41-1.454.542-.952.243-1.923.383-2.896.485-1.28.136-2.565.183-3.79.188-1.49-.008-2.915-.068-4.333-.238-1.064-.13-2.124-.29-3.146-.633-.303-.104-.598-.236-.883-.38-.146-.073-.275-.186-.386-.305-.197-.216-.196-.45.005-.664.117-.125.26-.232.407-.316.424-.246.89-.39 1.36-.512.982-.256 1.984-.402 2.993-.51 1.652-.17 3.308-.22 4.967-.17 1.524.044 3.045.157 4.55.43.706.127 1.407.274 2.075.545.236.096.463.217.683.346.11.063.208.163.288.265.142.182.148.397-.004.57zm1.664 18.367c.01.09-.004.184-.02.272-.306 1.604-.615 3.205-.912 4.81-.1.54-.344.99-.724 1.378-.422.432-.918.752-1.448 1.023-.98.498-2.018.81-3.085 1.03-1.377.287-2.77.415-3.563.408-2.41-.005-4.184-.197-5.917-.697-.802-.23-1.577-.53-2.3-.953-.38-.222-.732-.478-1.042-.79-.388-.39-.64-.845-.74-1.395-.297-1.604-.61-3.207-.916-4.81-.017-.08-.022-.163-.02-.245.02-.394.37-.597.724-.423.036.02.072.04.105.063 1.173.853 2.483 1.423 3.857 1.856 1.262.4 2.556.64 3.873.758 1.52.138 3.03.104 4.54-.11 2-.28 3.91-.85 5.687-1.827.354-.194.686-.43 1.025-.646.056-.034.108-.075.167-.103.34-.15.673.038.706.404zm-8.16-7.476c-.004 1.203-.99 2.184-2.196 2.178-1.205-.004-2.178-.987-2.172-2.196.004-1.212.98-2.18 2.192-2.175 1.21.007 2.18.983 2.177 2.194z"/></svg>