<?xml-stylesheet href="/styles/main.css" type="text/css"?><svg xmlns="http://www.w3.org/2000/svg" width="120.775" height="117.793" viewBox="0 0 120.775 117.793"><path fill-rule="evenodd" clip-rule="evenodd" d="M60.388 0C27.04 0 0 27.035 0 60.387c0 26.682 17.303 49.316 41.297 57.303 3.018.56 4.126-1.31 4.126-2.906 0-1.44-.056-6.197-.082-11.242-16.8 3.652-20.344-7.125-20.344-7.125-2.747-6.98-6.705-8.836-6.705-8.836-5.478-3.747.414-3.67.414-3.67 6.063.425 9.257 6.224 9.257 6.224 5.387 9.23 14.128 6.562 17.574 5.02.542-3.902 2.106-6.568 3.834-8.076-13.413-1.525-27.514-6.705-27.514-29.843 0-6.593 2.36-11.98 6.223-16.21-.627-1.52-2.694-7.662.585-15.98 0 0 5.07-1.622 16.61 6.19 4.817-1.337 9.983-2.008 15.116-2.032 5.13.023 10.3.694 15.127 2.033 11.527-7.813 16.59-6.19 16.59-6.19 3.287 8.317 1.22 14.46.594 15.98 3.87 4.23 6.214 9.616 6.214 16.21 0 23.194-14.127 28.3-27.574 29.795 2.166 1.874 4.096 5.55 4.096 11.183 0 8.08-.07 14.584-.07 16.572 0 1.607 1.088 3.49 4.148 2.898 23.98-7.994 41.262-30.623 41.262-57.295C120.776 27.035 93.738 0 60.388 0z"/><path fill="#191717" d="M22.872 86.704c-.133.3-.605.39-1.035.184-.438-.197-.684-.605-.542-.906.13-.31.603-.395 1.04-.19.438.197.688.61.537.912zm-.743-.55M25.318 89.432c-.288.266-.852.143-1.233-.28-.396-.42-.47-.983-.177-1.255.297-.266.843-.14 1.238.28.396.425.473.984.172 1.255zm-.576-.62M27.7 92.91c-.37.257-.977.017-1.35-.52-.37-.538-.37-1.183.008-1.44.374-.258.97-.025 1.35.506.37.546.37 1.19-.01 1.453zm0 0M30.96 96.27c-.33.365-1.035.266-1.55-.232-.53-.486-.676-1.178-.345-1.543.336-.365 1.045-.262 1.564.232.524.486.683 1.182.33 1.543zm0 0M35.46 98.22c-.145.474-.824.69-1.508.487-.684-.207-1.13-.762-.992-1.238.142-.478.824-.702 1.513-.487.682.207 1.13.756.988 1.238zm0 0M40.403 98.583c.017.498-.563.91-1.28.92-.723.016-1.308-.387-1.315-.877 0-.504.567-.912 1.29-.924.716-.014 1.305.386 1.305.88zm0 0M45.002 97.8c.086.485-.413.983-1.126 1.116-.7.13-1.35-.172-1.44-.652-.086-.498.422-.998 1.122-1.127.713-.123 1.353.168 1.444.662zm0 0"/></svg>